<svg width="35" height="35" viewBox="0 0 35 35" fill="none" xmlns="http://www.w3.org/2000/svg">
<g clip-path="url(#clip0_964_177)">
<path d="M0 17.5C0 7.83504 7.83504 0 17.5 0C27.165 0 35 7.83504 35 17.5C35 27.165 27.165 35 17.5 35C7.83504 35 0 27.165 0 17.5Z" fill="#FECC00"/>
<path d="M26.4431 13.1784C26.2284 12.3537 25.5958 11.7043 24.7927 11.4839C23.3371 11.0834 17.4998 11.0834 17.4998 11.0834C17.4998 11.0834 11.6626 11.0834 10.2069 11.4839C9.40368 11.7043 8.77113 12.3537 8.55646 13.1784C8.1665 14.6731 8.1665 17.7917 8.1665 17.7917C8.1665 17.7917 8.1665 20.9102 8.55646 22.405C8.77113 23.2297 9.40368 23.8791 10.2069 24.0996C11.6626 24.5 17.4998 24.5 17.4998 24.5C17.4998 24.5 23.3371 24.5 24.7927 24.0996C25.5958 23.8791 26.2284 23.2297 26.4431 22.405C26.8332 20.9102 26.8332 17.7917 26.8332 17.7917C26.8332 17.7917 26.8332 14.6731 26.4431 13.1784Z" fill="#262626"/>
<path d="M15.75 21V15.1666L20.4167 18.0834L15.75 21Z" fill="#FECC00"/>
</g>
<defs>
<clipPath id="clip0_964_177">
<rect width="35" height="35" fill="white"/>
</clipPath>
</defs>
</svg>
